<svg width="30" height="30" viewBox="0 0 30 30" fill="none" xmlns="http://www.w3.org/2000/svg">
<circle cx="15" cy="15" r="15" fill="url(#paint0_linear)"/>
<path fill-rule="evenodd" clip-rule="evenodd" d="M10.7759 9.29557H12.745C12.9377 9.62868 13.2188 9.90429 13.5562 10.0904C13.5348 10.1741 13.5235 10.2618 13.5235 10.3521V12.1105C12.8894 12.4751 12.4623 13.1593 12.4623 13.9433C12.4623 13.9434 12.4623 13.9436 12.4623 13.9437H6.97266V17.8974H15.0225C16.911 17.8974 18.4419 19.4284 18.4419 21.3169V23.4505H22.3952V21.2337C22.3569 17.7682 19.9277 14.8766 16.6795 14.1306C16.6849 14.0689 16.6877 14.0064 16.6877 13.9433C16.6877 13.1633 16.265 12.482 15.6362 12.1161V10.3521C15.6362 10.2601 15.6244 10.1708 15.6023 10.0857C15.9359 9.89969 16.2139 9.6259 16.405 9.29557H18.3816C18.965 9.29557 19.4379 8.82263 19.4379 8.23923C19.4379 7.65583 18.965 7.1829 18.3816 7.1829H16.4051C16.0398 6.55136 15.357 6.12646 14.575 6.12646C13.793 6.12646 13.1102 6.55136 12.7449 7.1829H10.7759C10.1925 7.1829 9.71959 7.65583 9.71959 8.23923C9.71959 8.82263 10.1925 9.29557 10.7759 9.29557Z" fill="white"/>
<defs>
<linearGradient id="paint0_linear" x1="24.2857" y1="15" x2="7.85714" y2="37.1429" gradientUnits="userSpaceOnUse">
<stop stop-color="#E3D948"/>
<stop offset="1" stop-color="#FFF66F"/>
</linearGradient>
</defs>
</svg>
