<svg width="350" height="85" viewBox="0 0 350 85" fill="none" xmlns="http://www.w3.org/2000/svg">
<path d="M42.1349 84.337C65.4053 84.337 84.2698 65.4575 84.2698 42.1685C84.2698 18.8795 65.4053 0 42.1349 0C18.8644 0 0 18.8795 0 42.1685C0 65.4575 18.8644 84.337 42.1349 84.337Z" fill="#00EF8B"/>
<path d="M49.0859 35.4149H60.9458V47.4395H49.0859V35.4149Z" fill="white"/>
<path d="M37.0579 51.887C37.0613 53.7068 35.8506 55.3405 34.1701 56.0384C32.4895 56.7364 30.5539 56.3523 29.2671 55.0656C27.9804 53.7788 27.5963 51.8432 28.2943 50.1627C28.9923 48.4821 30.626 47.4361 32.4457 47.4396H37.0579V35.4149H32.4457C25.782 35.4117 19.7813 39.4237 17.2296 45.5795C14.6779 51.7353 16.0866 58.8222 20.7986 63.5341C25.5105 68.2461 32.5974 69.6548 38.7532 67.1032C44.9091 64.5515 49.0859 58.5508 49.0825 51.887V47.4396H37.0579V51.887Z" fill="white"/>
<path d="M53.8194 29.5372H67.5319V17.7899H53.8194C44.5666 17.7991 37.0681 25.0287 37.0586 33.9497V35.415H49.0832V33.9497C49.0879 31.5179 51.2971 29.5464 53.8194 29.5372Z" fill="white"/>
<path d="M49.0832 47.4395V35.4149H37.0586V47.4395H49.0832Z" fill="#16FF99"/>
<g clip-path="url(#clip0)">
<path d="M117.532 40.9491H112.034V61.4387H104.351V40.9491H100.381V34.3668H104.351V31.8056C104.351 25.172 108.491 21.7656 114.792 21.7656C115.766 21.7749 116.736 21.8894 117.686 22.1071V29.7907C116.854 29.4618 115.968 29.2909 115.074 29.287C114.259 29.2249 113.458 29.5215 112.881 30.0991C112.303 30.6767 112.006 31.4777 112.069 32.2922V34.3326H117.567L117.532 40.9491ZM129.109 61.4387H121.34V22.3376H129.109V61.4387Z" fill="white"/>
<path d="M146.354 32.6667C152.312 32.6564 157.688 36.2386 159.973 41.7408C162.257 47.243 161 53.5798 156.787 57.7926C152.574 62.0053 146.238 63.2629 140.735 60.9782C135.233 58.6935 131.651 53.3172 131.661 47.3595C131.613 43.448 133.145 39.6825 135.911 36.9165C138.677 34.1505 142.443 32.6181 146.354 32.6667ZM146.354 54.5565C150.324 54.5565 153.184 51.2696 153.184 47.3595C153.184 43.4494 150.35 40.2052 146.354 40.2052C142.487 40.3386 139.422 43.5118 139.422 47.3808C139.422 51.2499 142.487 54.4231 146.354 54.5565Z" fill="white"/>
<path d="M169.157 33.2302L174.143 52.0123L179.137 37.0976L177.779 33.2387H185.463L192.045 52.0209L196.929 33.2387H204.92L196.528 61.4888H188.477L182.859 46.002L177.643 61.4888H169.532L161.191 33.2387L169.157 33.2302Z" fill="white"/>
</g>
<path d="M216.489 34.7217V61.4375H214.477V34.7217H209.894V32.8773H214.477V27.7354C214.477 23.674 216.302 21.6433 219.954 21.6433C221.109 21.6433 222.245 21.9413 223.363 22.5375V24.326C222.096 23.7671 220.96 23.4877 219.954 23.4877C218.687 23.4877 217.793 23.8416 217.271 24.5496C216.749 25.2575 216.489 26.394 216.489 27.9589V32.8773H223.363V34.7217H216.489Z" fill="white"/>
<path d="M245.598 61.4375V56.9662C244.48 58.5684 243.12 59.8353 241.518 60.7668C239.916 61.661 238.258 62.1082 236.544 62.1082C233.712 62.1082 231.476 61.3071 229.837 59.7049C228.235 58.0654 227.434 55.7739 227.434 52.8303C227.434 49.8867 228.347 47.6511 230.172 46.1234C231.998 44.5585 234.345 43.776 237.215 43.776C240.009 43.776 242.804 44.6889 245.598 46.5146V42.2669C245.598 39.1743 244.965 37.0318 243.698 35.8395C242.431 34.6472 240.736 34.051 238.612 34.051C235.929 34.051 233.06 34.9639 230.005 36.7897L229.39 35.057C232.669 33.1568 235.799 32.2066 238.779 32.2066C239.897 32.2066 240.922 32.337 241.853 32.5978C242.822 32.8587 243.754 33.3244 244.648 33.9951C245.58 34.6285 246.306 35.5787 246.828 36.8455C247.349 38.1124 247.61 39.6401 247.61 41.4286V61.4375H245.598ZM236.544 60.2638C239.823 60.2638 242.841 58.3821 245.598 54.6188V48.4149C242.804 46.5519 240.009 45.6204 237.215 45.6204C235.091 45.6204 233.284 46.2538 231.793 47.5207C230.34 48.7503 229.613 50.5202 229.613 52.8303C229.613 55.0659 230.228 56.8731 231.458 58.2517C232.725 59.5931 234.42 60.2638 236.544 60.2638Z" fill="white"/>
<path d="M274.192 61.4375V56.6309C272.552 60.2824 269.758 62.1082 265.808 62.1082C259.66 62.1082 256.586 58.1772 256.586 50.3152V32.8773H258.598V50.7623C258.598 57.0966 261.039 60.2638 265.92 60.2638C271.435 60.2638 274.192 56.6681 274.192 49.4769V32.8773H276.204V61.4375H274.192Z" fill="white"/>
<path d="M294.914 62.1082C291.747 62.1082 289.232 60.8041 287.369 58.1958C285.543 55.5503 284.63 51.8802 284.63 47.1853C284.63 42.4905 285.58 38.8204 287.48 36.1749C289.381 33.5294 291.989 32.2066 295.305 32.2066C297.243 32.2066 298.938 32.7283 300.391 33.7716C301.844 34.8148 302.925 36.2866 303.633 38.1869L301.621 38.9694C301.099 37.479 300.279 36.3239 299.162 35.5042C298.044 34.6472 296.758 34.2187 295.305 34.2187C289.642 34.2187 286.81 38.5409 286.81 47.1853C286.81 51.2095 287.536 54.3766 288.989 56.6868C290.443 58.9597 292.417 60.0961 294.914 60.0961C296.628 60.0961 298.118 59.6303 299.385 58.6988C300.652 57.7301 301.528 56.4446 302.012 54.8424L304.024 55.569C303.391 57.581 302.254 59.1832 300.615 60.3756C299.013 61.5306 297.112 62.1082 294.914 62.1082Z" fill="white"/>
<path d="M320.841 62.1082C317.227 62.1082 314.414 60.7854 312.402 58.1399C310.39 55.4572 309.383 51.787 309.383 47.1294C309.383 42.4719 310.445 38.8204 312.569 36.1749C314.693 33.5294 317.45 32.2066 320.841 32.2066C324.045 32.2066 326.561 33.4548 328.386 35.9513C330.249 38.4105 331.181 42.1365 331.181 47.1294V47.7442H311.563C311.824 55.9788 314.973 60.0961 321.009 60.0961C323.505 60.0961 325.741 59.295 327.716 57.6928L328.889 59.146C326.579 61.1208 323.896 62.1082 320.841 62.1082ZM311.563 45.8998H329.057C329.02 41.5776 328.181 38.5223 326.542 36.7338C324.902 34.9453 323.002 34.051 320.841 34.051C318.196 34.051 316.034 35.0384 314.358 37.0132C312.718 38.9508 311.787 41.913 311.563 45.8998Z" fill="white"/>
<path d="M345.585 62.1082C342.082 62.1082 340.331 59.9471 340.331 55.6248V34.7217H335.469V32.8773H340.331V22.0904L342.343 21.0844V32.8773H349.609V34.7217H342.343V55.3454C342.343 56.9848 342.586 58.1958 343.07 58.9783C343.554 59.7608 344.467 60.152 345.809 60.152C347.224 60.152 348.622 59.7049 350 58.8106L349.777 60.9345C348.51 61.7169 347.113 62.1082 345.585 62.1082Z" fill="white"/>
<defs>
<clipPath id="clip0">
<rect width="105.628" height="41.6765" fill="white" transform="translate(99.8008 21.0844)"/>
</clipPath>
</defs>
</svg>
