<svg width="350" height="85" viewBox="0 0 350 85" fill="none" xmlns="http://www.w3.org/2000/svg">
<path d="M42.1349 84.337C65.4053 84.337 84.2698 65.4575 84.2698 42.1685C84.2698 18.8795 65.4053 0 42.1349 0C18.8644 0 0 18.8795 0 42.1685C0 65.4575 18.8644 84.337 42.1349 84.337Z" fill="#00EF8B"/>
<path d="M49.0859 35.415H60.9458V47.4397H49.0859V35.415Z" fill="white"/>
<path d="M37.0579 51.8871C37.0613 53.7069 35.8506 55.3406 34.1701 56.0386C32.4895 56.7365 30.5539 56.3525 29.2671 55.0657C27.9804 53.7789 27.5963 51.8433 28.2943 50.1628C28.9923 48.4822 30.626 47.4363 32.4457 47.4397H37.0579V35.415H32.4457C25.782 35.4118 19.7813 39.4238 17.2296 45.5796C14.6779 51.7355 16.0866 58.8223 20.7986 63.5343C25.5105 68.2462 32.5974 69.655 38.7532 67.1033C44.9091 64.5516 49.0859 58.5509 49.0825 51.8871V47.4397H37.0579V51.8871Z" fill="white"/>
<path d="M53.8194 29.5371H67.5319V17.7898H53.8194C44.5666 17.799 37.0681 25.0286 37.0586 33.9496V35.4149H49.0832V33.9496C49.0879 31.5178 51.2971 29.5463 53.8194 29.5371Z" fill="white"/>
<path d="M49.0832 47.4397V35.415H37.0586V47.4397H49.0832Z" fill="#16FF99"/>
<g clip-path="url(#clip0)">
<path d="M117.532 40.9491H112.034V61.4387H104.351V40.9491H100.381V34.3668H104.351V31.8056C104.351 25.172 108.491 21.7656 114.792 21.7656C115.766 21.7749 116.736 21.8894 117.686 22.1071V29.7907C116.854 29.4618 115.968 29.2909 115.074 29.287C114.259 29.2249 113.458 29.5215 112.881 30.0991C112.303 30.6767 112.006 31.4777 112.069 32.2922V34.3326H117.567L117.532 40.9491ZM129.109 61.4387H121.34V22.3376H129.109V61.4387Z" fill="#151515"/>
<path d="M146.354 32.6667C152.312 32.6563 157.688 36.2385 159.973 41.7407C162.257 47.2429 161 53.5798 156.787 57.7925C152.574 62.0052 146.238 63.2629 140.735 60.9782C135.233 58.6935 131.651 53.3171 131.661 47.3594C131.613 43.448 133.145 39.6825 135.911 36.9164C138.677 34.1504 142.443 32.618 146.354 32.6667ZM146.354 54.5564C150.324 54.5564 153.184 51.2695 153.184 47.3594C153.184 43.4493 150.35 40.2051 146.354 40.2051C142.487 40.3385 139.422 43.5118 139.422 47.3808C139.422 51.2498 142.487 54.423 146.354 54.5564Z" fill="#151515"/>
<path d="M169.157 33.2302L174.143 52.0124L179.137 37.0976L177.779 33.2388H185.463L192.045 52.0209L196.929 33.2388H204.92L196.528 61.4889H188.477L182.859 46.0021L177.643 61.4889H169.532L161.191 33.2388L169.157 33.2302Z" fill="#151515"/>
</g>
<path d="M216.488 34.7216V61.4374H214.476V34.7216H209.893V32.8772H214.476V27.7352C214.476 23.6738 216.301 21.6431 219.953 21.6431C221.108 21.6431 222.244 21.9412 223.362 22.5374V24.3259C222.095 23.767 220.959 23.4875 219.953 23.4875C218.686 23.4875 217.792 23.8415 217.27 24.5495C216.749 25.2574 216.488 26.3939 216.488 27.9588V32.8772H223.362V34.7216H216.488Z" fill="#151515"/>
<path d="M245.597 61.4374V56.9661C244.479 58.5683 243.119 59.8352 241.517 60.7667C239.915 61.6609 238.257 62.108 236.543 62.108C233.711 62.108 231.475 61.3069 229.836 59.7047C228.234 58.0653 227.433 55.7738 227.433 52.8302C227.433 49.8866 228.346 47.651 230.171 46.1233C231.997 44.5583 234.344 43.7759 237.214 43.7759C240.008 43.7759 242.803 44.6888 245.597 46.5145V42.2668C245.597 39.1742 244.964 37.0317 243.697 35.8394C242.43 34.6471 240.735 34.0509 238.611 34.0509C235.928 34.0509 233.059 34.9638 230.004 36.7895L229.389 35.0569C232.668 33.1566 235.798 32.2065 238.778 32.2065C239.896 32.2065 240.921 32.3369 241.852 32.5977C242.821 32.8586 243.753 33.3243 244.647 33.995C245.579 34.6284 246.305 35.5786 246.827 36.8454C247.348 38.1123 247.609 39.64 247.609 41.4285V61.4374H245.597ZM236.543 60.2636C239.822 60.2636 242.84 58.382 245.597 54.6187V48.4148C242.803 46.5518 240.008 45.6203 237.214 45.6203C235.09 45.6203 233.283 46.2537 231.792 47.5206C230.339 48.7502 229.612 50.52 229.612 52.8302C229.612 55.0658 230.227 56.8729 231.457 58.2516C232.724 59.593 234.419 60.2636 236.543 60.2636Z" fill="#151515"/>
<path d="M274.191 61.4374V56.6308C272.552 60.2823 269.757 62.108 265.807 62.108C259.659 62.108 256.585 58.1771 256.585 50.3151V32.8772H258.597V50.7622C258.597 57.0965 261.038 60.2636 265.919 60.2636C271.434 60.2636 274.191 56.668 274.191 49.4767V32.8772H276.203V61.4374H274.191Z" fill="#151515"/>
<path d="M294.913 62.108C291.746 62.108 289.231 60.8039 287.368 58.1957C285.542 55.5502 284.629 51.88 284.629 47.1852C284.629 42.4904 285.579 38.8202 287.479 36.1747C289.38 33.5292 291.988 32.2065 295.304 32.2065C297.242 32.2065 298.937 32.7281 300.39 33.7714C301.843 34.8147 302.924 36.2865 303.632 38.1868L301.62 38.9693C301.098 37.4789 300.278 36.3238 299.161 35.504C298.043 34.6471 296.757 34.2186 295.304 34.2186C289.641 34.2186 286.809 38.5408 286.809 47.1852C286.809 51.2093 287.535 54.3765 288.988 56.6866C290.442 58.9595 292.416 60.096 294.913 60.096C296.627 60.096 298.117 59.6302 299.384 58.6987C300.651 57.7299 301.527 56.4444 302.011 54.8422L304.023 55.5688C303.39 57.5809 302.253 59.1831 300.614 60.3754C299.012 61.5305 297.111 62.108 294.913 62.108Z" fill="#151515"/>
<path d="M320.84 62.108C317.226 62.108 314.413 60.7853 312.401 58.1398C310.389 55.457 309.383 51.7869 309.383 47.1293C309.383 42.4718 310.444 38.8202 312.568 36.1747C314.692 33.5292 317.449 32.2065 320.84 32.2065C324.045 32.2065 326.56 33.4547 328.385 35.9512C330.248 38.4104 331.18 42.1364 331.18 47.1293V47.7441H311.562C311.823 55.9787 314.972 60.096 321.008 60.096C323.504 60.096 325.74 59.2949 327.715 57.6927L328.888 59.1458C326.578 61.1206 323.895 62.108 320.84 62.108ZM311.562 45.8997H329.056C329.019 41.5775 328.18 38.5221 326.541 36.7336C324.902 34.9451 323.001 34.0509 320.84 34.0509C318.195 34.0509 316.034 35.0383 314.357 37.0131C312.717 38.9506 311.786 41.9129 311.562 45.8997Z" fill="#151515"/>
<path d="M345.584 62.108C342.082 62.108 340.33 59.9469 340.33 55.6247V34.7216H335.468V32.8772H340.33V22.0903L342.342 21.0842V32.8772H349.608V34.7216H342.342V55.3453C342.342 56.9847 342.585 58.1957 343.069 58.9782C343.553 59.7606 344.466 60.1519 345.808 60.1519C347.223 60.1519 348.621 59.7047 349.999 58.8105L349.776 60.9343C348.509 61.7168 347.112 62.108 345.584 62.108Z" fill="#151515"/>
<defs>
<clipPath id="clip0">
<rect width="105.628" height="41.6765" fill="white" transform="translate(99.8008 21.0842)"/>
</clipPath>
</defs>
</svg>
