<svg width="30" height="30" viewBox="0 0 30 30" fill="none" xmlns="http://www.w3.org/2000/svg">
<circle cx="15" cy="15" r="15" fill="#ADB0B7"/>
<path fill-rule="evenodd" clip-rule="evenodd" d="M10.7734 9.29643H12.7484C12.9402 9.62768 13.2193 9.90202 13.5544 10.0879C13.5323 10.173 13.5205 10.2622 13.5205 10.3542V12.1154C12.8903 12.4804 12.4662 13.1618 12.4653 13.9424H6.97266V17.8961H15.021C16.9095 17.8961 18.4404 19.427 18.4404 21.3155V23.4492H22.3941V21.3155C22.3941 17.8148 19.9545 14.884 16.6827 14.1304C16.688 14.0692 16.6907 14.0073 16.6907 13.9447C16.6907 13.1622 16.2653 12.4791 15.6332 12.114V10.3542C15.6332 10.2626 15.6215 10.1738 15.5996 10.0891C15.9356 9.90314 16.2155 9.62836 16.4076 9.29643H18.3791C18.9625 9.29643 19.4354 8.8235 19.4354 8.2401C19.4354 7.6567 18.9625 7.18376 18.3791 7.18376H16.4085C16.0433 6.55189 15.3603 6.12671 14.578 6.12671C13.7957 6.12671 13.1128 6.55189 12.7476 7.18376H10.7734C10.1901 7.18376 9.71711 7.6567 9.71711 8.2401C9.71711 8.8235 10.19 9.29643 10.7734 9.29643Z" fill="white"/>
</svg>
