<svg width="42" height="42" viewBox="0 0 42 42" fill="none" xmlns="http://www.w3.org/2000/svg">
<circle cx="21" cy="21" r="21" fill="url(#paint0_linear)"/>
<path fill-rule="evenodd" clip-rule="evenodd" d="M15.0858 13.0141H17.8428C18.1126 13.4806 18.5062 13.8665 18.9787 14.127C18.9489 14.2441 18.9331 14.3667 18.9331 14.4931V16.9549C18.045 17.4652 17.447 18.4233 17.447 19.521H9.76172V25.0562H21.0323C23.6762 25.0562 25.8195 27.1996 25.8195 29.8435V32.8309H31.3533V29.6697C31.2736 24.8431 27.8812 20.8224 23.3511 19.7825C23.3587 19.6964 23.3625 19.6092 23.3625 19.521C23.3625 18.4292 22.7709 17.4756 21.8908 16.9632V14.4931C21.8908 14.3642 21.8743 14.2392 21.8434 14.1201C22.3103 13.8597 22.6993 13.4764 22.9668 13.0141H25.7337C26.5504 13.0141 27.2126 12.352 27.2126 11.5352C27.2126 10.7185 26.5504 10.0564 25.7337 10.0564H22.9669C22.4555 9.17223 21.4996 8.57739 20.4048 8.57739C19.3099 8.57739 18.3541 9.17223 17.8427 10.0564H15.0858C14.269 10.0564 13.6069 10.7185 13.6069 11.5352C13.6069 12.352 14.269 13.0141 15.0858 13.0141Z" fill="white"/>
<defs>
<linearGradient id="paint0_linear" x1="45.2813" y1="-24.2812" x2="-12.5756" y2="33.5756" gradientUnits="userSpaceOnUse">
<stop stop-color="#3545F5"/>
<stop offset="1" stop-color="#75E0E4"/>
</linearGradient>
</defs>
</svg>
